<?xml version="1.0" standalone="no"?>
<!DOCTYPE svg PUBLIC "-//W3C//DTD SVG 20010904//EN"
 "http://www.w3.org/TR/2001/REC-SVG-20010904/DTD/svg10.dtd">
<svg version="1.0" xmlns="http://www.w3.org/2000/svg"
 width="500.000000pt" height="500.000000pt" viewBox="0 0 500.000000 500.000000"
 preserveAspectRatio="xMidYMid meet">
<metadata>
Created by potrace 1.15, written by Peter Selinger 2001-2017
</metadata>
<g transform="translate(0.000000,500.000000) scale(0.100000,-0.100000)"
fill="#000000" stroke="none">
<path d="M3030 2780 c0 -60 -3 -110 -7 -110 -5 1 -19 7 -33 15 -32 18 -121 19
-163 1 -49 -20 -95 -74 -114 -133 -45 -144 64 -293 205 -279 30 2 65 12 79 22
24 15 27 15 38 0 8 -11 27 -16 59 -16 l46 0 0 305 0 305 -55 0 -55 0 0 -110z
m-49 -190 c28 -15 49 -63 49 -111 0 -33 -6 -47 -34 -75 -75 -75 -186 -21 -186
92 0 54 53 104 110 104 23 0 50 -5 61 -10z"/>
<path d="M718 2866 c-97 -26 -173 -105 -205 -215 -53 -184 91 -381 278 -381
77 0 229 83 229 125 0 7 -17 27 -39 44 l-38 31 -19 -22 c-25 -28 -92 -58 -129
-58 -16 0 -49 9 -72 19 -122 56 -134 244 -20 319 53 35 126 36 183 3 l39 -23
32 38 c18 20 33 40 33 44 0 16 -84 64 -132 77 -62 16 -79 16 -140 -1z"/>
<path d="M1224 2681 c-18 -11 -35 -24 -39 -30 -9 -16 -25 -3 -25 20 0 16 -7
19 -50 19 l-50 0 0 -205 0 -205 55 0 55 0 0 125 c0 123 0 125 29 157 24 27 36
32 89 36 l60 4 4 44 c2 30 -1 45 -10 49 -29 11 -89 4 -118 -14z"/>
<path d="M1485 2681 c-106 -49 -153 -172 -106 -277 35 -76 128 -134 219 -134
35 0 129 27 137 40 3 5 -1 23 -10 41 -12 22 -21 29 -33 24 -30 -11 -100 -18
-126 -11 -13 3 -39 18 -57 33 l-33 28 150 5 149 5 3 34 c8 81 -44 173 -119
211 -48 25 -121 25 -174 1z"/>
<path d="M1950 2689 c-14 -5 -42 -27 -63 -47 -112 -110 -68 -314 79 -362 48
-16 119 -7 155 19 35 26 35 26 42 1 4 -16 14 -20 51 -20 l46 0 0 205 0 205
-46 0 c-37 0 -47 -4 -51 -20 -5 -19 -6 -19 -34 3 -34 24 -137 34 -179 16z
m165 -112 c53 -45 43 -162 -16 -192 -86 -45 -179 22 -166 119 12 86 118 128
182 73z"/>
<path d="M3292 2679 c-85 -42 -131 -141 -111 -237 19 -93 114 -172 208 -172
148 0 255 170 192 305 -50 109 -182 156 -289 104z m162 -107 c48 -51 48 -128
0 -175 -52 -52 -142 -26 -162 46 -32 116 85 209 162 129z"/>
<path d="M2310 2485 l0 -205 55 0 55 0 0 133 c0 127 1 135 23 155 29 28 87 29
110 4 14 -15 17 -42 17 -155 l0 -137 55 0 55 0 0 154 c0 142 -2 155 -23 187
-42 63 -127 86 -203 54 -31 -13 -36 -13 -41 0 -3 10 -20 15 -54 15 l-49 0 0
-205z"/>
</g>
</svg>
